<?xml version="1.0" encoding="utf-8"?>
<!-- Generator: Adobe Illustrator 23.0.1, SVG Export Plug-In . SVG Version: 6.00 Build 0)  -->
<svg version="1.1" id="Layer_1" xmlns="http://www.w3.org/2000/svg" xmlns:xlink="http://www.w3.org/1999/xlink" x="0px" y="0px"
	 width="15.5px" height="15.5px" viewBox="0 0 15.5 15.5" style="enable-background:new 0 0 15.5 15.5;" xml:space="preserve">
<style type="text/css">
	.st0{fill:#FEE565;}
	.st1{fill:#FDD62F;}
	.st2{fill:#1D1D1D;}
	.st3{fill:#F37E7F;}
</style>
<circle class="st0" cx="7.7517633" cy="7.7515717" r="7.7482371"/>
<path class="st1" d="M1.3499037,8.4293537c0,2.3797703,0.979884,4.5195742,2.5696931,6.0594006
	C1.5798615,13.1588678,0,10.6391582,0,7.7494278C0,3.46982,3.4696901,0.000191,7.7492371,0.000191
	c0.3399935,0,0.6699171,0.0200175,0.989893,0.0700004C4.5695572,0.580151,1.3499037,4.1297894,1.3499037,8.4293537z"/>
<path class="st2" d="M10.25,4.875C9.4001446,4.8396711,8.6324434,5.3793592,8.3780003,6.191
	C8.3454189,6.3955278,8.4848099,6.5877428,8.6893377,6.6203241C8.8015308,6.638196,8.9157772,6.6042442,9,6.5279999
	l0.3000002-0.2659998c0.568429-0.412343,1.3375711-0.412343,1.9060001,0l0.3000002,0.2659998
	c0.1538248,0.1378508,0.390274,0.1249008,0.5281248-0.028924C12.1092167,6.4152822,12.1425934,6.3021336,12.125001,6.191
	c-0.2499952-0.8122301-1.0169802-1.3531475-1.8660002-1.316H10.25z M5.25,6.75c0.5522847,0,1-0.4477148,1-1s-0.4477153-1-1-1
	s-1,0.4477148-1,1S4.6977153,6.75,5.25,6.75z"/>
<path class="st3" d="M11.3249998,8.75H4.1750002c-0.2313836-0.0033131-0.421643,0.1815739-0.4249561,0.4129581
	C3.7497759,9.1816845,3.7507637,9.200407,3.7530003,9.2189999C4.0103421,11.1083221,5.6302772,12.5129204,7.5370002,12.5h0.4250002
	c1.9067235,0.0129204,3.5266576-1.3916779,3.7839999-3.2810001c0.0276375-0.2297516-0.1362076-0.438406-0.3659582-0.4660435
	C11.3614483,8.7507191,11.3427258,8.7497311,11.3240004,8.75H11.3249998z"/>
</svg>
